<svg width="32" height="32" viewBox="0 0 32 32" fill="none" xmlns="http://www.w3.org/2000/svg">
<path d="M12.6667 16.0001C12.6667 16.7334 12.0667 17.3334 11.3334 17.3334C10.6001 17.3334 10.0001 16.7334 10.0001 16.0001C10.0001 15.2667 10.6001 14.6667 11.3334 14.6667C12.0667 14.6667 12.6667 15.2667 12.6667 16.0001ZM18.3334 13.3334C19.0667 13.3334 19.6667 12.7334 19.6667 12.0001C19.6667 11.2667 19.0667 10.6667 18.3334 10.6667C17.6001 10.6667 17.0001 11.2667 17.0001 12.0001C17.0001 12.7334 17.6001 13.3334 18.3334 13.3334ZM13.6667 13.3334C14.4001 13.3334 15.0001 12.7334 15.0001 12.0001C15.0001 11.2667 14.4001 10.6667 13.6667 10.6667C12.9334 10.6667 12.3334 11.2667 12.3334 12.0001C12.3334 12.7334 12.9334 13.3334 13.6667 13.3334ZM13.6667 18.6667C12.9334 18.6667 12.3334 19.2667 12.3334 20.0001C12.3334 20.7334 12.9334 21.3334 13.6667 21.3334C14.4001 21.3334 15.0001 20.7334 15.0001 20.0001C15.0001 19.2667 14.4001 18.6667 13.6667 18.6667ZM29.3334 15.0001V17.0001C29.3334 17.5467 28.8801 18.0001 28.3334 18.0001C27.7867 18.0001 27.3334 17.5467 27.3334 17.0001H25.2801C25.0879 18.7838 24.384 20.4738 23.2534 21.8667L24.7067 23.3201L24.7201 23.3067C25.1067 22.9201 25.7467 22.9201 26.1334 23.3067C26.5201 23.6934 26.5201 24.3334 26.1334 24.7201L24.7201 26.1334C24.3334 26.5201 23.6934 26.5201 23.3067 26.1334C23.1224 25.9479 23.0178 25.6977 23.0153 25.4361C23.0128 25.1746 23.1126 24.9224 23.2934 24.7334L21.8401 23.2801C20.4479 24.4011 18.7637 25.0998 16.9867 25.2934V27.3467H17.0001C17.5467 27.3467 18.0001 27.8001 18.0001 28.3467C18.0001 28.8934 17.5467 29.3467 17.0001 29.3467H15.0001C14.4534 29.3467 14.0001 28.8934 14.0001 28.3467C14.0001 27.8001 14.4401 27.3601 14.9867 27.3467V25.2801C13.2132 25.0889 11.5326 24.3898 10.1467 23.2667L8.69341 24.7201L8.70675 24.7334C9.09342 25.1201 9.09342 25.7601 8.70675 26.1467C8.32008 26.5334 7.68008 26.5334 7.29341 26.1467L5.86675 24.7201C5.68077 24.5319 5.57648 24.278 5.57648 24.0134C5.57648 23.7488 5.68077 23.4949 5.86675 23.3067C6.25341 22.9201 6.88008 22.9201 7.26675 23.2934L8.72008 21.8401C7.59795 20.455 6.90304 18.7733 6.72008 17.0001H4.66675C4.66675 17.5467 4.21341 18.0001 3.66675 18.0001C3.12008 18.0001 2.66675 17.5467 2.66675 17.0001V15.0001C2.66675 14.4534 3.12008 14.0001 3.66675 14.0001C4.21341 14.0001 4.66675 14.4534 4.66675 15.0001H6.72008C6.92008 13.1734 7.64008 11.5201 8.72008 10.1601L7.26675 8.70675C6.88008 9.08008 6.25341 9.08008 5.86675 8.69341C5.68077 8.50523 5.57648 8.25132 5.57648 7.98675C5.57648 7.72217 5.68077 7.46827 5.86675 7.28008L7.28008 5.86675C7.66675 5.48008 8.30675 5.48008 8.69341 5.86675C9.08008 6.25341 9.08008 6.89341 8.69341 7.28008L8.68008 7.29341L10.1334 8.74675C11.5206 7.62588 13.2005 6.92706 14.9734 6.73342V4.66675C14.7108 4.66222 14.4605 4.55499 14.2761 4.36805C14.0916 4.18112 13.9878 3.92936 13.9867 3.66675C13.9936 3.4014 14.103 3.14902 14.2919 2.96258C14.4809 2.77613 14.7347 2.67011 15.0001 2.66675H17.0001C17.5467 2.66675 18.0001 3.12008 18.0001 3.66675C18.0001 4.21341 17.5467 4.66675 17.0001 4.66675H16.9867V6.72008C18.8134 6.90675 20.4801 7.64008 21.8401 8.73342L23.2934 7.28008C23.2023 7.18732 23.1303 7.07751 23.0817 6.95693C23.033 6.83634 23.0086 6.70734 23.0099 6.57732C23.0111 6.44729 23.038 6.31878 23.0889 6.19915C23.1398 6.07951 23.2139 5.97109 23.3067 5.88008C23.6934 5.49341 24.3334 5.49341 24.7201 5.88008L26.1334 7.29341C26.5201 7.68008 26.5201 8.32008 26.1334 8.70675C25.7467 9.09342 25.1067 9.09342 24.7201 8.70675L24.7067 8.69341L23.2534 10.1334C24.381 11.5282 25.0844 13.2173 25.2801 15.0001H27.3334C27.3334 14.4534 27.7867 14.0001 28.3334 14.0001C28.8801 14.0001 29.3334 14.4534 29.3334 15.0001V15.0001ZM22.6667 16.0001C22.6667 12.3201 19.6801 9.33341 16.0001 9.33341C12.3201 9.33341 9.33341 12.3201 9.33341 16.0001C9.33341 19.6801 12.3201 22.6667 16.0001 22.6667C19.6801 22.6667 22.6667 19.6801 22.6667 16.0001ZM16.0001 14.6667C15.2667 14.6667 14.6667 15.2667 14.6667 16.0001C14.6667 16.7334 15.2667 17.3334 16.0001 17.3334C16.7334 17.3334 17.3334 16.7334 17.3334 16.0001C17.3334 15.2667 16.7334 14.6667 16.0001 14.6667ZM20.6667 14.6667C19.9334 14.6667 19.3334 15.2667 19.3334 16.0001C19.3334 16.7334 19.9334 17.3334 20.6667 17.3334C21.4001 17.3334 22.0001 16.7334 22.0001 16.0001C22.0001 15.2667 21.4001 14.6667 20.6667 14.6667ZM18.3334 18.6667C17.6001 18.6667 17.0001 19.2667 17.0001 20.0001C17.0001 20.7334 17.6001 21.3334 18.3334 21.3334C19.0667 21.3334 19.6667 20.7334 19.6667 20.0001C19.6667 19.2667 19.0667 18.6667 18.3334 18.6667Z" fill="white"/>
</svg>
