<svg width="886" height="886" viewBox="0 0 886 886" fill="none" xmlns="http://www.w3.org/2000/svg">
<circle cx="443" cy="443" r="443" fill="black"/>
<g clip-path="url(#clip0_9_27)">
<path d="M215.076 551.486C189.866 551.486 169.36 523.235 169.36 488.525C169.36 453.814 189.866 425.581 215.076 425.581C240.272 425.581 260.775 453.814 260.775 488.525C260.775 523.235 240.272 551.486 215.076 551.486Z" fill="white"/>
<path d="M285.557 338.65C273.82 366.214 267.766 393.01 265.087 414.807C255.799 404.985 244.02 399.085 231.18 399.085C216.655 399.085 203.49 401.345 193.757 413.203C200.43 410.144 207.578 408.372 215.076 408.372C249.767 408.372 277.982 444.332 277.982 488.53C277.982 532.725 249.767 568.71 215.076 568.71C180.383 568.71 152.153 532.726 152.153 488.53C152.153 456.621 166.895 429.096 188.135 416.203C190.634 394.741 195.439 371.053 202.767 347.099C163.345 372.178 136 426.127 136 488.53C136 574.769 188.203 644.944 252.366 644.944C316.522 644.944 368.713 574.77 368.713 488.53C368.713 417.802 333.58 357.917 285.557 338.65Z" fill="white"/>
<path d="M302.442 305.748C299.338 310.874 296.432 316.015 293.769 321.169C348.475 343.924 388.235 410.262 388.235 488.539C388.235 572.57 342.49 642.983 281.564 660.316C282.9 660.355 284.216 660.446 285.555 660.446C375.033 660.446 447.564 580.803 447.564 482.565C447.563 390.605 383.956 315.029 302.442 305.748Z" fill="white"/>
<path d="M568.74 538.781C539.816 538.781 516.264 510.454 516.264 475.636C516.264 440.843 539.816 412.528 568.74 412.528C597.705 412.528 621.252 440.843 621.252 475.636C621.252 510.454 597.704 538.781 568.74 538.781Z" fill="white"/>
<path d="M630.13 317.726C625.525 317.726 626.725 318.166 622.29 318.953C675.804 343.777 713.723 404.625 713.723 475.624C713.723 538.148 684.312 592.782 640.767 621.897C698.348 618.309 750 551.636 750 469.896C750 385.845 689.996 317.726 630.13 317.726Z" fill="white"/>
<path d="M568.739 318.476C510.857 318.476 465.022 362.136 448.088 422.933C454.138 441.577 457.464 461.641 457.464 482.567C457.464 500.96 454.91 518.704 450.19 535.38C468.603 592.5 513.111 632.811 568.74 632.811C642.366 632.811 702.236 562.305 702.236 475.637C702.235 388.992 642.364 318.476 568.739 318.476ZM568.739 567.479C523.989 567.479 493.3 526.267 493.3 475.638C493.3 425.031 523.989 383.845 568.739 383.845C613.525 383.845 649.946 425.031 649.946 475.638C649.946 526.267 613.525 567.479 568.739 567.479Z" fill="white"/>
<path d="M491.951 164.599C487.809 164.209 482.928 164 477.461 164C469.144 164 463.612 164.458 458.073 165.154V165.693V170.768C552.636 193.05 577.648 254.97 599.122 310.752C617.642 315.332 635.223 324.172 650.832 336.658C627.4 228.472 581.619 173.273 491.951 164.599Z" fill="white"/>
<path d="M250.261 415.029C242.818 411.168 234.817 409.183 226.593 409.183C220.389 409.183 214.266 404.611 208.401 406.848C216.656 344.972 249.4 182.22 420.04 166.735C427.462 166.057 436.363 165.72 446.465 165.72C447.436 165.72 442.681 165.72 443.647 165.723C286.278 206.11 255.788 352.635 250.261 415.029Z" fill="white"/>
</g>
<circle cx="443" cy="443" r="405.5" stroke="white" stroke-width="29"/>
<defs>
<clipPath id="clip0_9_27">
<rect width="614" height="497" fill="white" transform="translate(136 164)"/>
</clipPath>
</defs>
</svg>
