<svg width="32" height="32" viewBox="0 0 32 32" fill="none" xmlns="http://www.w3.org/2000/svg">
<path d="M32 0V22.2222C32 23.8725 31.379 25.4551 30.2735 26.622C29.168 27.7889 27.6686 28.4444 26.1053 28.4444C24.5419 28.4444 23.0425 27.7889 21.9371 26.622C20.8316 25.4551 20.2105 23.8725 20.2105 22.2222C20.2105 20.572 20.8316 18.9893 21.9371 17.8224C23.0425 16.6556 24.5419 16 26.1053 16C27.0147 16 27.8737 16.2133 28.6316 16.6044V6.16889L11.7895 9.95556V25.7778C11.7895 27.428 11.1684 29.0107 10.0629 30.1776C8.95747 31.3444 7.45812 32 5.89474 32C4.33136 32 2.83201 31.3444 1.72653 30.1776C0.621051 29.0107 0 27.428 0 25.7778C0 24.1275 0.621051 22.5449 1.72653 21.378C2.83201 20.2111 4.33136 19.5556 5.89474 19.5556C6.80421 19.5556 7.66316 19.7689 8.42105 20.16V5.33333L32 0Z" fill="white"/>
</svg>
